<mxfile host="app.diagrams.net" agent="Mozilla/5.0 (Macintosh; Intel Mac OS X 10_15_7) AppleWebKit/537.36 (KHTML, like Gecko) Chrome/128.0.0.0 Safari/537.36" version="24.7.15">
  <diagram name="Page-1" id="wtEaAcixG8sV7pHJkqwq">
    <mxGraphModel dx="1194" dy="651" grid="1" gridSize="10" guides="1" tooltips="1" connect="1" arrows="1" fold="1" page="1" pageScale="1" pageWidth="850" pageHeight="1100" math="0" shadow="0">
      <root>
        <mxCell id="0" />
        <mxCell id="1" parent="0" />
        <mxCell id="jmBBC1BHzDNqqZKwvv8d-32" style="edgeStyle=orthogonalEdgeStyle;rounded=0;orthogonalLoop=1;jettySize=auto;html=1;entryX=0;entryY=0.5;entryDx=0;entryDy=0;" edge="1" parent="1" source="jmBBC1BHzDNqqZKwvv8d-17" target="jmBBC1BHzDNqqZKwvv8d-29">
          <mxGeometry relative="1" as="geometry" />
        </mxCell>
        <mxCell id="jmBBC1BHzDNqqZKwvv8d-17" value="Encode 1&amp;nbsp;" style="rounded=1;whiteSpace=wrap;html=1;fillColor=#f8cecc;strokeColor=#b85450;" vertex="1" parent="1">
          <mxGeometry x="220" y="150" width="120" height="60" as="geometry" />
        </mxCell>
        <mxCell id="jmBBC1BHzDNqqZKwvv8d-33" style="edgeStyle=orthogonalEdgeStyle;rounded=0;orthogonalLoop=1;jettySize=auto;html=1;entryX=0;entryY=0.5;entryDx=0;entryDy=0;" edge="1" parent="1" source="jmBBC1BHzDNqqZKwvv8d-18" target="jmBBC1BHzDNqqZKwvv8d-29">
          <mxGeometry relative="1" as="geometry" />
        </mxCell>
        <mxCell id="jmBBC1BHzDNqqZKwvv8d-18" value="Encoder 2" style="rounded=1;whiteSpace=wrap;html=1;fillColor=#f8cecc;strokeColor=#b85450;" vertex="1" parent="1">
          <mxGeometry x="220" y="252" width="120" height="60" as="geometry" />
        </mxCell>
        <mxCell id="jmBBC1BHzDNqqZKwvv8d-34" style="edgeStyle=orthogonalEdgeStyle;rounded=0;orthogonalLoop=1;jettySize=auto;html=1;entryX=0;entryY=0.5;entryDx=0;entryDy=0;" edge="1" parent="1" source="jmBBC1BHzDNqqZKwvv8d-19" target="jmBBC1BHzDNqqZKwvv8d-29">
          <mxGeometry relative="1" as="geometry" />
        </mxCell>
        <mxCell id="jmBBC1BHzDNqqZKwvv8d-19" value="Encoder 3" style="rounded=1;whiteSpace=wrap;html=1;fillColor=#f8cecc;strokeColor=#b85450;" vertex="1" parent="1">
          <mxGeometry x="220" y="357" width="120" height="60" as="geometry" />
        </mxCell>
        <mxCell id="jmBBC1BHzDNqqZKwvv8d-20" value="" style="edgeStyle=orthogonalEdgeStyle;rounded=0;orthogonalLoop=1;jettySize=auto;html=1;" edge="1" parent="1" source="jmBBC1BHzDNqqZKwvv8d-21" target="jmBBC1BHzDNqqZKwvv8d-17">
          <mxGeometry relative="1" as="geometry" />
        </mxCell>
        <mxCell id="jmBBC1BHzDNqqZKwvv8d-21" value="Satellite Imagery" style="text;html=1;align=center;verticalAlign=middle;resizable=0;points=[];autosize=1;strokeColor=none;fillColor=none;" vertex="1" parent="1">
          <mxGeometry x="55" y="165" width="110" height="30" as="geometry" />
        </mxCell>
        <mxCell id="jmBBC1BHzDNqqZKwvv8d-22" value="" style="edgeStyle=orthogonalEdgeStyle;rounded=0;orthogonalLoop=1;jettySize=auto;html=1;" edge="1" parent="1" source="jmBBC1BHzDNqqZKwvv8d-23" target="jmBBC1BHzDNqqZKwvv8d-18">
          <mxGeometry relative="1" as="geometry" />
        </mxCell>
        <mxCell id="jmBBC1BHzDNqqZKwvv8d-23" value="Vegetation Cover" style="text;html=1;align=center;verticalAlign=middle;resizable=0;points=[];autosize=1;strokeColor=none;fillColor=none;" vertex="1" parent="1">
          <mxGeometry x="55" y="267" width="120" height="30" as="geometry" />
        </mxCell>
        <mxCell id="jmBBC1BHzDNqqZKwvv8d-24" value="" style="edgeStyle=orthogonalEdgeStyle;rounded=0;orthogonalLoop=1;jettySize=auto;html=1;" edge="1" parent="1" source="jmBBC1BHzDNqqZKwvv8d-25" target="jmBBC1BHzDNqqZKwvv8d-19">
          <mxGeometry relative="1" as="geometry" />
        </mxCell>
        <mxCell id="jmBBC1BHzDNqqZKwvv8d-25" value="Temperature" style="text;html=1;align=center;verticalAlign=middle;resizable=0;points=[];autosize=1;strokeColor=none;fillColor=none;" vertex="1" parent="1">
          <mxGeometry x="70" y="372" width="90" height="30" as="geometry" />
        </mxCell>
        <mxCell id="jmBBC1BHzDNqqZKwvv8d-36" style="edgeStyle=orthogonalEdgeStyle;rounded=0;orthogonalLoop=1;jettySize=auto;html=1;entryX=0;entryY=0.5;entryDx=0;entryDy=0;" edge="1" parent="1" source="jmBBC1BHzDNqqZKwvv8d-26" target="jmBBC1BHzDNqqZKwvv8d-29">
          <mxGeometry relative="1" as="geometry" />
        </mxCell>
        <mxCell id="jmBBC1BHzDNqqZKwvv8d-26" value="Encoder 4" style="rounded=1;whiteSpace=wrap;html=1;fillColor=#f8cecc;strokeColor=#b85450;" vertex="1" parent="1">
          <mxGeometry x="220" y="457" width="120" height="60" as="geometry" />
        </mxCell>
        <mxCell id="jmBBC1BHzDNqqZKwvv8d-27" value="" style="edgeStyle=orthogonalEdgeStyle;rounded=0;orthogonalLoop=1;jettySize=auto;html=1;" edge="1" parent="1" source="jmBBC1BHzDNqqZKwvv8d-28" target="jmBBC1BHzDNqqZKwvv8d-26">
          <mxGeometry relative="1" as="geometry" />
        </mxCell>
        <mxCell id="jmBBC1BHzDNqqZKwvv8d-28" value="Text (social media reports)&lt;div style=&quot;forced-color-adjust: none;&quot;&gt;&lt;br style=&quot;forced-color-adjust: none; color: rgb(0, 0, 0); font-family: Helvetica; font-size: 12px; font-style: normal; font-variant-ligatures: normal; font-variant-caps: normal; font-weight: 400; letter-spacing: normal; orphans: 2; text-align: center; text-indent: 0px; text-transform: none; widows: 2; word-spacing: 0px; -webkit-text-stroke-width: 0px; white-space: nowrap; background-color: rgb(251, 251, 251); text-decoration-thickness: initial; text-decoration-style: initial; text-decoration-color: initial;&quot;&gt;&lt;/div&gt;" style="text;whiteSpace=wrap;html=1;" vertex="1" parent="1">
          <mxGeometry x="35" y="467" width="150" height="40" as="geometry" />
        </mxCell>
        <mxCell id="jmBBC1BHzDNqqZKwvv8d-29" value="&lt;font style=&quot;font-size: 16px;&quot;&gt;Fusion Module&lt;/font&gt;" style="whiteSpace=wrap;html=1;aspect=fixed;fillColor=#e1d5e7;strokeColor=#9673a6;" vertex="1" parent="1">
          <mxGeometry x="390" y="239" width="133" height="133" as="geometry" />
        </mxCell>
        <mxCell id="jmBBC1BHzDNqqZKwvv8d-30" value="&lt;font style=&quot;font-size: 20px;&quot;&gt;Encoding&lt;span style=&quot;white-space: pre;&quot;&gt;&#x9;&lt;/span&gt;&lt;/font&gt;" style="text;html=1;align=center;verticalAlign=middle;resizable=0;points=[];autosize=1;strokeColor=none;fillColor=none;" vertex="1" parent="1">
          <mxGeometry x="220" y="90" width="110" height="40" as="geometry" />
        </mxCell>
        <mxCell id="jmBBC1BHzDNqqZKwvv8d-31" value="&lt;div style=&quot;text-align: center;&quot;&gt;&lt;span style=&quot;background-color: initial; font-size: 20px; text-wrap: nowrap;&quot;&gt;Fusion&lt;/span&gt;&lt;/div&gt;" style="text;whiteSpace=wrap;html=1;" vertex="1" parent="1">
          <mxGeometry x="410" y="90" width="140" height="50" as="geometry" />
        </mxCell>
      </root>
    </mxGraphModel>
  </diagram>
</mxfile>
